# xmcd
#
# Track frame offsets: 
#        150
#        18243
#        33831
#        45317
#        57598
#        70517
#        86629
#        112625
#        128510
#        139977
#        151806
#        163846
#        179417
#        197744
#        217488
#
# Disc length: 3140 seconds
#
# Revision: 0
# Processed by: cddbd v1.5.2PL0 Copyright (c) Steve Scherf et al.
# Submitted via: ExactAudioCopy v0.99pb4
#
DISCID=c80c420f
DTITLE=Various Artist - Battle Of The Groups: The Ladies [Disc 1]
DYEAR=2006
DGENRE=R&B
TTITLE0=Pointer Sisters - Jump (For My Love)
TTITLE1=Diana Ross And The Supremes - Someday We'll Be Together
TTITLE2=Ruby And The Romantics - Our Day Will Come
TTITLE3=Martha and The Vandellas - (Love Is Like A) Heat Wave
TTITLE4=The Marvelettes - Don't Mess With Bill
TTITLE5=High Inergy - You Can't Turn Me Off
TTITLE6=Mary Jane Girls - All Night Long
TTITLE7=Pointer Sisters - How Long
TTITLE8=The Supremes - Where Did Our Love Go
TTITLE9=The Marvelettes - When You're Young And In Love
TTITLE10=Martha and The Vandellas - Dancing In The Street
TTITLE11=Xscape - Just Kickin' It
TTITLE12=The Good Girls - Your Sweetness
TTITLE13=Swv - Weak
TTITLE14=Silver Convention - Get Up And Boogie
EXTD=
EXTT0=
EXTT1=
EXTT2=
EXTT3=
EXTT4=
EXTT5=
EXTT6=
EXTT7=
EXTT8=
EXTT9=
EXTT10=
EXTT11=
EXTT12=
EXTT13=
EXTT14=
PLAYORDER=
